<?xml version="1.0" encoding="utf-8"?>
<svg viewBox="148.106 44.165 740 435.42" xmlns="http://www.w3.org/2000/svg">
  <path d="M 831.898 49.527 L 571.729 49.527 L 571.729 44.165 L 453.758 44.165 L 453.758 49.527 L 192.516 49.527 C 182.796 49.527 174.917 57.406 174.917 67.126 L 174.917 423.378 C 174.917 433.097 182.796 440.976 192.516 440.976 L 831.898 440.976 C 841.618 440.976 849.497 433.097 849.497 423.378 L 849.497 67.126 C 849.497 57.406 841.618 49.527 831.898 49.527 Z" fill="#3f3d56"/>
  <rect x="198.511" y="80.629" width="627.391" height="353.913" style="fill: rgb(99, 138, 255);"/>
  <circle cx="511.671" cy="64.542" r="6.435" style="fill: rgb(99, 138, 255);"/>
  <path d="M 789.886 125.672 L 760.146 125.672 L 760.146 95.932 L 789.886 95.932 L 789.886 125.672 Z M 761.439 124.379 L 788.593 124.379 L 788.593 97.225 L 761.439 97.225 L 761.439 124.379 Z" fill="#3f3d56"/>
  <path d="M 867.113 428.107 L 805.883 428.107 L 805.883 423.695 C 805.883 423.212 805.492 422.821 805.009 422.821 L 784.016 422.821 C 783.533 422.821 783.141 423.212 783.141 423.695 L 783.141 428.107 L 770.021 428.107 L 770.021 423.695 C 770.021 423.212 769.629 422.821 769.146 422.821 L 748.153 422.821 C 747.67 422.821 747.278 423.212 747.278 423.695 L 747.278 428.107 L 734.158 428.107 L 734.158 423.695 C 734.158 423.212 733.766 422.821 733.283 422.821 L 712.29 422.821 C 711.807 422.821 711.415 423.212 711.415 423.695 L 711.415 428.107 L 698.295 428.107 L 698.295 423.695 C 698.295 423.212 697.903 422.821 697.42 422.821 L 676.427 422.821 C 675.944 422.821 675.552 423.212 675.552 423.695 L 675.552 428.107 L 662.432 428.107 L 662.432 423.695 C 662.432 423.212 662.04 422.821 661.557 422.821 L 640.564 422.821 C 640.081 422.821 639.69 423.212 639.69 423.695 L 639.69 428.107 L 626.569 428.107 L 626.569 423.695 C 626.569 423.212 626.177 422.821 625.694 422.821 L 604.701 422.821 C 604.218 422.821 603.827 423.212 603.827 423.695 L 603.827 428.107 L 590.706 428.107 L 590.706 423.695 C 590.706 423.212 590.315 422.821 589.831 422.821 L 425.387 422.821 C 424.904 422.821 424.512 423.212 424.512 423.695 L 424.512 428.107 L 411.392 428.107 L 411.392 423.695 C 411.392 423.212 411 422.821 410.517 422.821 L 389.524 422.821 C 389.041 422.821 388.649 423.212 388.649 423.695 L 388.649 428.107 L 375.529 428.107 L 375.529 423.695 C 375.529 423.212 375.137 422.821 374.654 422.821 L 353.661 422.821 C 353.178 422.821 352.786 423.212 352.787 423.695 L 352.787 428.107 L 339.666 428.107 L 339.666 423.695 C 339.666 423.212 339.274 422.821 338.791 422.821 L 317.798 422.821 C 317.315 422.821 316.924 423.212 316.924 423.695 L 316.924 428.107 L 303.803 428.107 L 303.803 423.695 C 303.803 423.212 303.411 422.821 302.928 422.821 L 281.935 422.821 C 281.452 422.821 281.061 423.212 281.061 423.695 L 281.061 428.107 L 267.94 428.107 L 267.94 423.695 C 267.94 423.212 267.549 422.821 267.065 422.821 L 246.073 422.821 C 245.589 422.821 245.198 423.212 245.198 423.695 L 245.198 428.107 L 232.077 428.107 L 232.077 423.695 C 232.077 423.212 231.686 422.821 231.203 422.821 L 210.21 422.821 C 209.727 422.821 209.335 423.212 209.335 423.695 L 209.335 428.107 L 169.099 428.107 C 157.505 428.107 148.106 437.506 148.106 449.1 L 148.106 458.592 C 148.106 470.186 157.505 479.585 169.099 479.585 L 867.113 479.585 C 878.707 479.585 888.106 470.186 888.106 458.592 L 888.106 449.1 C 888.106 437.506 878.707 428.107 867.113 428.107 Z" fill="#3f3d56"/>
  <path d="M 787.12 277.836 L 585.12 277.836 L 585.12 162.836 L 787.12 162.836 L 787.12 277.836 Z M 587.12 275.836 L 785.12 275.836 L 785.12 164.836 L 587.12 164.836 L 587.12 275.836 Z" fill="#3f3d56"/>
  <path d="M 417.12 300.836 L 237.12 300.836 L 237.12 188.836 L 417.12 188.836 L 417.12 300.836 Z M 239.12 298.836 L 415.12 298.836 L 415.12 190.836 L 239.12 190.836 L 239.12 298.836 Z" fill="#3f3d56"/>
  <path d="M 321.214 257.836 L 321.041 255.599 C 320.526 250.956 322.074 245.881 326.373 240.722 C 330.244 236.164 332.393 232.81 332.393 228.94 C 332.393 224.554 329.641 221.63 324.223 221.545 C 321.125 221.532 318.096 222.462 315.537 224.211 L 313.473 218.793 C 316.312 216.728 321.214 215.352 325.771 215.352 C 335.661 215.352 340.133 221.459 340.133 227.994 C 340.133 233.842 336.865 238.056 332.737 242.958 C 328.953 247.429 327.577 251.213 327.835 255.599 L 327.921 257.836 L 321.214 257.836 Z M 319.322 269.876 C 319.126 266.908 321.508 264.407 324.481 264.458 C 327.492 264.458 329.556 266.693 329.556 269.876 C 329.718 273.815 325.555 276.452 322.063 274.623 C 320.308 273.704 319.24 271.855 319.322 269.876 Z" fill="#d0cde1"/>
  <path d="M 680.214 232.836 L 680.041 230.599 C 679.526 225.956 681.074 220.881 685.373 215.722 C 689.244 211.164 691.393 207.81 691.393 203.94 C 691.393 199.554 688.641 196.63 683.223 196.545 C 680.125 196.532 677.096 197.462 674.537 199.211 L 672.473 193.793 C 675.312 191.728 680.214 190.352 684.771 190.352 C 694.661 190.352 699.133 196.459 699.133 202.994 C 699.133 208.842 695.865 213.056 691.737 217.958 C 687.953 222.429 686.577 226.213 686.835 230.599 L 686.921 232.836 L 680.214 232.836 Z M 678.322 244.876 C 678.126 241.908 680.508 239.407 683.481 239.458 C 686.492 239.458 688.556 241.693 688.556 244.876 C 688.718 248.815 684.555 251.452 681.063 249.623 C 679.308 248.704 678.24 246.855 678.322 244.876 Z" fill="#d0cde1"/>
  <circle cx="515.741" cy="305.014" r="86.292" fill="#2f2e41"/>
  <polygon points="482.413 423.183 456.616 418.513 464.983 364.649 490.779 369.319 482.413 423.183" fill="#2f2e41"/>
  <rect x="608.432" y="564.073" width="26.215" height="46.969" transform="matrix(0.984006, 0.178133, -0.178133, 0.984006, 18.354347, -289.444916)" fill="#2f2e41"/>
  <ellipse cx="626.082" cy="611.196" rx="8.192" ry="21.846" transform="matrix(0.19788, -0.980226, 0.980226, 0.19788, -193.167725, 915.829895)" fill="#2f2e41"/>
  <ellipse cx="572.111" cy="611.257" rx="8.192" ry="21.846" transform="matrix(0.131327, -0.991339, 0.991339, 0.131327, -205.236511, 910.01355)" fill="#2f2e41"/>
  <circle cx="521.782" cy="283.906" r="29.492" fill="#fff"/>
  <circle cx="533.903" cy="273.335" r="9.831" fill="#3f3d56"/>
  <path d="M 447.669 211.137 C 446.371 179.19 473.904 152.131 509.166 150.699 C 544.428 149.266 574.065 174.003 575.363 205.95 C 576.661 237.897 552.149 245.155 516.887 246.587 C 481.626 248.02 448.966 243.084 447.669 211.137 Z" fill="#fff"/>
  <ellipse cx="691.67" cy="477.418" rx="43.146" ry="13.545" transform="matrix(0.974722, -0.223422, 0.223422, 0.974722, -185.430389, -21.522083)" fill="#2f2e41"/>
  <ellipse cx="522.282" cy="505.587" rx="43.146" ry="13.545" transform="matrix(0.974722, -0.223422, 0.223422, 0.974722, -196.006027, -58.655045)" fill="#2f2e41"/>
  <path d="M 492.041 339.02 C 489.345 353.914 503.782 366.141 518.028 361.029 C 524.64 358.656 529.484 352.937 530.735 346.025 C 532.669 335.34 524.408 331.559 513.723 329.625 C 503.038 327.69 493.975 328.335 492.041 339.02 Z" fill="#fff"/>
  <rect x="187.583" y="57.287" width="141.887" height="134.967" fill="#d0cde1"/>
  <rect x="203.706" y="73.411" width="109.64" height="83.842" fill="#fff"/>
  <rect x="203.598" y="167.144" width="59.637" height="3.139" fill="#f2f2f2"/>
  <rect x="203.598" y="176.561" width="59.637" height="3.139" fill="#f2f2f2"/>
  <circle cx="223.215" cy="115.354" r="12.555" fill="#3f3d56"/>
  <circle cx="258.526" cy="115.354" r="12.555" style="fill: rgb(99, 138, 255);"/>
  <circle cx="293.837" cy="115.354" r="12.555" fill="#e6e6e6"/>
  <circle cx="258.526" cy="65.134" r="6.278" fill="#3f3d56"/>
  <rect x="255.07" y="318.624" width="141.887" height="134.967" fill="#d0cde1"/>
  <rect x="271.194" y="334.747" width="109.64" height="83.842" fill="#fff"/>
  <rect x="295.32" y="348.526" width="38.437" height="38.437" style="fill: rgb(99, 138, 255);"/>
  <path d="M 310.034 358.137 L 310.034 404.811 L 356.707 404.811 L 356.707 358.137 L 310.034 358.137 Z M 354.683 402.786 L 312.058 402.786 L 312.058 360.162 L 354.683 360.162 L 354.683 402.786 Z" fill="#3f3d56"/>
  <rect x="271.085" y="426.911" width="59.637" height="3.139" fill="#f2f2f2"/>
  <circle cx="326.014" cy="326.471" r="6.278" fill="#3f3d56"/>
  <rect x="624.484" y="278.218" width="141.887" height="134.967" fill="#d0cde1"/>
  <rect x="640.608" y="294.341" width="109.64" height="83.842" fill="#fff"/>
  <rect x="683.635" y="359.977" width="23.587" height="6.99" fill="#3f3d56"/>
  <rect x="655.12" y="305.558" width="80.617" height="2.996" fill="#3f3d56"/>
  <rect x="655.12" y="315.044" width="80.617" height="2.996" fill="#3f3d56"/>
  <rect x="655.12" y="324.53" width="80.617" height="2.996" fill="#3f3d56"/>
  <rect x="655.12" y="334.016" width="80.617" height="2.996" fill="#3f3d56"/>
  <rect x="655.12" y="343.502" width="80.617" height="2.996" fill="#3f3d56"/>
  <rect x="640.499" y="386.505" width="59.637" height="3.139" fill="#f2f2f2"/>
  <rect x="640.499" y="394.352" width="83.178" height="3.139" fill="#f2f2f2"/>
  <circle cx="695.428" cy="286.065" r="6.278" fill="#3f3d56"/>
</svg>